P3
# tool assisted image
96 3
255
255 192 192  255   0   0    0   0 255    0 255   0    0 255 255  255 255   0  255   0 255  255   0   0    0   0 255  255   0 255    0 255 255  255 255   0    0 255   0  255   0   0    0   0 255  255   0 255    0 255 255    0   0 255    0 255   0  255   0   0  255 255   0  255   0 255  255   0   0    0   0 255  255   0 255    0 255 255    0   0 255    0 255   0    0 255 255  255 255   0    0 255   0  255   0   0  255 255   0  255   0 255  255   0   0    0   0 255  255   0 255    0 255 255    0   0 255    0 255   0    0 255 255  255 255   0    0 255   0  255   0   0  255 255   0  255   0 255  255   0   0    0   0 255  255   0 255    0 255 255    0   0 255    0 255   0  255   0   0  255 255   0  255   0 255  255   0   0    0   0 255    0 255   0    0 255 255  255 255   0    0 255   0  255   0   0  255 255   0  255   0 255  255   0   0    0   0 255  255   0 255    0 255 255    0   0 255    0 255   0    0 255 255  255 255   0    0 255   0  255   0   0  255 255   0  255   0 255  255   0   0    0   0 255  255   0 255    0 255 255    0   0 255    0 255   0    0 255 255  255 255   0    0 255   0  255   0   0  255 255   0  255   0 255  255   0   0  255 255   0    0 255   0    0 255 255    0   0 255  255   0 255  255   0   0  255 255   0
255 255 255  255 255 255  255 255 255  255 255 255  255 255 255  255 255 255  255 255 255  255 255 255  255 255 255  255 255 255  255 255 255  255 255 255  255 255 255  255 255 255  255 255 255  255 255 255  255 255 255  255 255 255  255 255 255  255 255 255  255 255 255  255 255 255  255 255 255  255 255 255  255 255 255  255 255 255  255 255 255  255 255 255  255 255 255  255 255 255  255 255 255  255 255 255  255 255 255  255 255 255  255 255 255  255 255 255  255 255 255  255 255 255  255 255 255  255 255 255  255 255 255  255 255 255  255 255 255  255 255 255  255 255 255  255 255 255  255 255 255  255 255 255  255 255 255  255 255 255  255 255 255  255 255 255  255 255 255  255 255 255  255 255 255  255 255 255  255 255 255  255 255 255  255 255 255  255 255 255  255 255 255  255 255 255  255 255 255  255 255 255  255 255 255  255 255 255  255 255 255  255 255 255  255 255 255  255 255 255  255 255 255  255 255 255  255 255 255  255 255 255  255 255 255  255 255 255  255 255 255  255 255 255  255 255 255  255 255 255  255 255 255  255 255 255  255 255 255  255 255 255  255 255 255  255 255 255  255 255 255  255 255 255  255 255 255  255 255 255  255 255 255  255 255 255  255 255 255  255 255 255  255 255 255  255 255 255
255 255 255  255 255 255  255 255 255  255 255 255  255 255 255  255 255 255  255 255 255  255 255 255  255 255 255  255 255 255  255 255 255  255 255 255  255 255 255  255 255 255  255 255 255  255 255 255  255 255 255  255 255 255  255 255 255  255 255 255  255 255 255  255 255 255  255 255 255  255 255 255  255 255 255  255 255 255  255 255 255  255 255 255  255 255 255  255 255 255  255 255 255  255 255 255  255 255 255  255 255 255  255 255 255  255 255 255  255 255 255  255 255 255  255 255 255  255 255 255  255 255 255  255 255 255  255 255 255  255 255 255  255 255 255  255 255 255  255 255 255  255 255 255  255 255 255  255 255 255  255 255 255  255 255 255  255 255 255  255 255 255  255 255 255  255 255 255  255 255 255  255 255 255  255 255 255  255 255 255  255 255 255  255 255 255  255 255 255  255 255 255  255 255 255  255 255 255  255 255 255  255 255 255  255 255 255  255 255 255  255 255 255  255 255 255  255 255 255  255 255 255  255 255 255  255 255 255  255 255 255  255 255 255  255 255 255  255 255 255  255 255 255  255 255 255  255 255 255  255 255 255  255 255 255  255 255 255  255 255 255  255 255 255  255 255 255  255 255 255  255 255 255  255 255 255  255 255 255  255 255 255  255 255 255  255 255 255

